<?xml version="1.0" encoding="UTF-8"?><svg id="_Слой_2" xmlns="http://www.w3.org/2000/svg" viewBox="0 0 19.65 19.65"><defs><style>.cls-1{fill:#ea862e;stroke-width:0px;}</style></defs><g id="_Слой_1-2"><path class="cls-1" d="m13.1,12.28c-.12,0-.25-.03-.37-.09l-3.28-1.64c-.28-.14-.45-.42-.45-.73v-5.73c0-.45.37-.82.82-.82s.82.37.82.82v5.23l2.82,1.41c.4.2.57.69.37,1.1-.14.29-.43.45-.73.45Zm-3.27,7.37C4.41,19.65,0,15.24,0,9.83S4.41,0,9.83,0s9.83,4.41,9.83,9.83-4.41,9.83-9.83,9.83Zm0-18.02C5.31,1.64,1.64,5.31,1.64,9.83s3.67,8.19,8.19,8.19,8.19-3.67,8.19-8.19S14.34,1.64,9.83,1.64Z"/></g></svg>