<?xml version="1.0" encoding="UTF-8"?><svg id="_Слой_2" xmlns="http://www.w3.org/2000/svg" viewBox="0 0 21 18.41"><defs><style>.cls-1{fill:#ea862e;stroke-width:0px;}</style></defs><g id="_Слой_1-2"><path class="cls-1" d="m.69,14.59c-.38,0-.69-.35-.69-.77s.31-.77.69-.77h.81l.05-.45c.39-3.66,3.02-6.77,6.56-7.75l.62-.17-.31-.56c-.24-.43-.38-.96-.38-1.44,0-1.48,1.11-2.68,2.47-2.68s2.47,1.2,2.47,2.68c0,.53-.13,1.04-.37,1.42l-.35.57.65.18c3.54.98,6.18,4.09,6.56,7.75l.05.45h.81c.38,0,.69.35.69.77s-.31.77-.69.77H.69ZM10.5,6.06c-3.75,0-6.99,2.75-7.54,6.41l-.09.57h15.25l-.09-.57c-.55-3.65-3.79-6.41-7.54-6.41Zm0-4.52c-.6,0-1.09.51-1.09,1.14s.49,1.14,1.09,1.14,1.09-.51,1.09-1.14-.49-1.14-1.09-1.14Z"/><path class="cls-1" d="m.69,18.41c-.38,0-.69-.35-.69-.77s.31-.77.69-.77h19.62c.38,0,.69.35.69.77s-.31.77-.69.77H.69Z"/></g></svg>