<?xml version="1.0" encoding="UTF-8"?><svg id="_Слой_2" xmlns="http://www.w3.org/2000/svg" viewBox="0 0 31.82 31.82"><defs><style>.cls-1{fill:#ea862e;stroke-width:0px;}</style></defs><g id="_Слой_1-2"><path class="cls-1" d="m21.21,19.89c-.2,0-.4-.05-.59-.14l-5.3-2.65c-.45-.23-.73-.68-.73-1.19V6.63c0-.73.59-1.33,1.33-1.33s1.33.59,1.33,1.33v8.46l4.57,2.29c.65.33.92,1.12.59,1.78-.23.46-.7.73-1.19.73Zm-5.3,11.93C7.14,31.82,0,24.68,0,15.91S7.14,0,15.91,0s15.91,7.14,15.91,15.91-7.14,15.91-15.91,15.91Zm0-29.17c-7.31,0-13.26,5.95-13.26,13.26s5.95,13.26,13.26,13.26,13.26-5.95,13.26-13.26S23.22,2.65,15.91,2.65Z"/></g></svg>