<?xml version="1.0" encoding="UTF-8"?><svg id="_Слой_2" xmlns="http://www.w3.org/2000/svg" viewBox="0 0 22 21.98"><defs><style>.cls-1{fill:#ea862e;stroke-width:0px;}</style></defs><g id="_Слой_1-2"><path class="cls-1" d="m21.66,20.05l-5.04-5.04.19-.26c3.02-4.15,2.09-9.96-2.06-12.98C10.6-1.24,4.79-.32,1.77,3.83-1.24,7.99-.32,13.8,3.83,16.81c3.26,2.36,7.66,2.36,10.92,0l.26-.19,5.04,5.04c.45.43,1.16.43,1.61,0,.44-.44.45-1.16,0-1.6,0,0,0,0,0,0Zm-12.35-3.74c-3.87,0-7.01-3.14-7.01-7.01s3.14-7.01,7.01-7.01,7.01,3.14,7.01,7.01c0,3.87-3.14,7-7.01,7.01Z"/></g></svg>