<?xml version="1.0" encoding="UTF-8"?><svg id="_Слой_2" xmlns="http://www.w3.org/2000/svg" viewBox="0 0 28.91 31.34"><defs><style>.cls-1{fill:#ea862e;stroke-width:0px;}</style></defs><g id="_Слой_1-2"><path class="cls-1" d="m24.57,28.72H4.33c-.8,0-1.45.58-1.45,1.31s.65,1.31,1.45,1.31h20.24c.8,0,1.45-.58,1.45-1.31s-.65-1.31-1.45-1.31Z"/><path class="cls-1" d="m21.68,2.59c-.46,0-.91.04-1.36.12C17.99-.21,13.47-.88,10.23,1.24c-.63.41-1.18.91-1.63,1.48C4.67,2.03.88,4.35.13,7.89c-.64,3,1.11,5.99,4.2,7.22v11c0,.72.65,1.31,1.45,1.31h17.35c.8,0,1.45-.58,1.45-1.31v-11c3.66-1.45,5.32-5.3,3.72-8.6-1.15-2.37-3.75-3.91-6.61-3.91Zm1.08,10.32c-.66.15-1.11.7-1.08,1.31v10.58H7.22v-10.62c.02-.61-.43-1.15-1.08-1.31-2.29-.62-3.59-2.81-2.9-4.88.53-1.6,2.14-2.72,3.99-2.79.49,0,.98.09,1.45.25.7.24,1.5-.04,1.82-.65,1.06-1.94,3.66-2.74,5.81-1.78.86.38,1.55,1.01,1.97,1.78.33.61,1.12.9,1.82.65.51-.18,1.05-.26,1.59-.25,2.4.01,4.33,1.78,4.31,3.94-.01,1.77-1.33,3.31-3.23,3.77Z"/></g></svg>