<?xml version="1.0" encoding="UTF-8"?><svg id="_Слой_2" xmlns="http://www.w3.org/2000/svg" viewBox="0 0 34 29.8"><defs><style>.cls-1{fill:#ea862e;stroke-width:0px;}</style></defs><g id="_Слой_1-2"><path class="cls-1" d="m1.12,23.62c-.62,0-1.12-.56-1.12-1.25s.5-1.25,1.12-1.25h1.31l.08-.72c.62-5.92,4.89-10.96,10.62-12.54l1-.28-.51-.9c-.39-.7-.62-1.55-.62-2.34,0-2.39,1.8-4.34,4-4.34s4,1.95,4,4.34c0,.86-.21,1.68-.6,2.3l-.57.92,1.05.29c5.73,1.58,10,6.62,10.62,12.54l.08.72h1.31c.62,0,1.12.56,1.12,1.25s-.5,1.25-1.12,1.25H1.12Zm15.88-13.8c-6.07,0-11.32,4.46-12.21,10.37l-.14.93h24.7l-.14-.93c-.89-5.91-6.14-10.37-12.21-10.37Zm0-7.31c-.98,0-1.77.83-1.77,1.84s.79,1.84,1.77,1.84,1.77-.83,1.77-1.84-.8-1.84-1.77-1.84Z"/><path class="cls-1" d="m1.12,29.8c-.62,0-1.12-.56-1.12-1.25s.5-1.25,1.12-1.25h31.77c.62,0,1.12.56,1.12,1.25s-.5,1.25-1.12,1.25H1.12Z"/></g></svg>