<?xml version="1.0" encoding="UTF-8"?><svg xmlns="http://www.w3.org/2000/svg" viewBox="0 0 439.46 92.08"><defs><style>.cls-1{isolation:isolate;}.cls-2{mix-blend-mode:screen;}.cls-2,.cls-3{fill:#ea862e;stroke-width:0px;}</style></defs><g class="cls-1"><g id="_Слой_2"><g id="_Слой_1-2"><path class="cls-3" d="m135.32,24.36h5.33l5.89,15.48,5.95-15.48h5.33l-7.71,19.36,7.64,18.36,15.04-37.97h6.14l-18.61,44.49h-4.89l-8.83-20.99-8.9,20.99h-4.89l-18.55-44.49h6.08l15.1,37.97,7.58-18.36-7.71-19.36Z"/><path class="cls-3" d="m194.1,69.22c-2.46,0-4.71-.45-6.74-1.34-2.03-.89-3.78-2.11-5.26-3.67-1.48-1.55-2.63-3.35-3.45-5.38-.81-2.03-1.22-4.19-1.22-6.47,0-3.07.71-5.87,2.13-8.4,1.42-2.53,3.39-4.56,5.92-6.09,2.53-1.53,5.42-2.3,8.68-2.3s6.17.78,8.62,2.33c2.44,1.56,4.34,3.59,5.7,6.1,1.36,2.51,2.04,5.22,2.04,8.12,0,.42-.01.82-.03,1.21-.02.39-.05.7-.09.9h-27.13c.17,2.11.76,3.97,1.79,5.61,1.02,1.63,2.35,2.91,3.98,3.84,1.63.93,3.38,1.39,5.26,1.39,2,0,3.89-.5,5.67-1.5,1.78-1,3-2.32,3.67-3.95l4.76,1.32c-.71,1.59-1.77,3.01-3.16,4.26-1.4,1.25-3.05,2.24-4.95,2.95-1.9.71-3.96,1.07-6.17,1.07Zm-11.03-18.8h22.31c-.17-2.11-.77-3.96-1.82-5.57-1.04-1.61-2.38-2.87-4.01-3.78-1.63-.91-3.42-1.36-5.39-1.36s-3.7.45-5.33,1.36c-1.63.91-2.96,2.17-3.98,3.78-1.02,1.61-1.62,3.47-1.79,5.57Z"/><path class="cls-3" d="m216.78,22.86h5.51v37.45c0,1.8.25,2.92.75,3.33.5.42,1.11.63,1.82.63.88,0,1.71-.09,2.51-.28.79-.19,1.46-.39,2-.59l.88,4.51c-.92.38-2,.69-3.26.94-1.25.25-2.36.38-3.32.38-2.13,0-3.81-.61-5.04-1.82-1.23-1.22-1.85-2.92-1.85-5.1V22.86Z"/><path class="cls-3" d="m234.7,22.86h5.51v37.45c0,1.8.25,2.92.75,3.33.5.42,1.11.63,1.82.63.88,0,1.71-.09,2.51-.28.79-.19,1.46-.39,2-.59l.88,4.51c-.92.38-2,.69-3.26.94-1.25.25-2.36.38-3.32.38-2.13,0-3.81-.61-5.04-1.82-1.23-1.22-1.85-2.92-1.85-5.1V22.86Z"/><path class="cls-3" d="m259.01,34.51v34.08h-5.64V24.11h4.76l27.19,34.77V24.17h5.64v44.42h-5.14l-26.82-34.08Z"/><path class="cls-3" d="m314.65,69.22c-2.46,0-4.71-.45-6.74-1.34-2.03-.89-3.78-2.11-5.26-3.67-1.48-1.55-2.63-3.35-3.45-5.38-.81-2.03-1.22-4.19-1.22-6.47,0-3.07.71-5.87,2.13-8.4,1.42-2.53,3.39-4.56,5.92-6.09,2.53-1.53,5.42-2.3,8.68-2.3s6.17.78,8.62,2.33c2.44,1.56,4.34,3.59,5.7,6.1,1.36,2.51,2.04,5.22,2.04,8.12,0,.42-.01.82-.03,1.21-.02.39-.05.7-.09.9h-27.13c.17,2.11.76,3.97,1.79,5.61,1.02,1.63,2.35,2.91,3.98,3.84,1.63.93,3.38,1.39,5.26,1.39,2,0,3.89-.5,5.67-1.5,1.78-1,3-2.32,3.67-3.95l4.76,1.32c-.71,1.59-1.77,3.01-3.16,4.26-1.4,1.25-3.05,2.24-4.95,2.95-1.9.71-3.96,1.07-6.17,1.07Zm-11.03-18.8h22.31c-.17-2.11-.77-3.96-1.82-5.57-1.04-1.61-2.38-2.87-4.01-3.78-1.63-.91-3.42-1.36-5.39-1.36s-3.7.45-5.33,1.36c-1.63.91-2.96,2.17-3.98,3.78-1.02,1.61-1.62,3.47-1.79,5.57Z"/><path class="cls-3" d="m365.59,68.6h-5.51v-18.13c0-3.44-.53-5.95-1.6-7.55-1.07-1.59-2.68-2.39-4.86-2.39-1.5,0-3,.37-4.48,1.12-1.48.74-2.8,1.74-3.95,3-1.15,1.26-1.97,2.71-2.48,4.36v19.59h-5.51v-32.52h5.01v7.02c.88-1.53,2-2.86,3.38-3.98,1.38-1.12,2.94-1.99,4.7-2.61,1.75-.62,3.59-.93,5.51-.93s3.46.34,4.73,1.03c1.27.68,2.28,1.64,3.01,2.86.73,1.22,1.25,2.66,1.57,4.32.31,1.66.47,3.46.47,5.41v19.4Z"/><path class="cls-3" d="m388.64,69.22c-2.46,0-4.71-.45-6.74-1.34-2.03-.89-3.78-2.12-5.26-3.7-1.48-1.58-2.63-3.38-3.45-5.41s-1.22-4.19-1.22-6.47c0-3.07.69-5.87,2.07-8.4,1.38-2.53,3.32-4.55,5.83-6.06,2.51-1.51,5.41-2.27,8.71-2.27s6.03.72,8.43,2.16c2.4,1.44,4.19,3.37,5.36,5.8l-5.39,1.69c-.84-1.54-2-2.75-3.51-3.6-1.5-.86-3.17-1.28-5.01-1.28-2,0-3.83.52-5.48,1.55-1.65,1.03-2.96,2.45-3.92,4.25-.96,1.8-1.44,3.85-1.44,6.17s.49,4.33,1.47,6.17c.98,1.84,2.3,3.3,3.95,4.37,1.65,1.08,3.48,1.61,5.48,1.61,1.29,0,2.54-.23,3.73-.69s2.23-1.08,3.13-1.85c.9-.77,1.51-1.62,1.85-2.54l5.39,1.63c-.67,1.59-1.68,3-3.04,4.23-1.36,1.23-2.97,2.2-4.82,2.91-1.86.71-3.9,1.07-6.11,1.07Z"/><path class="cls-3" d="m423.04,69.22c-2.46,0-4.71-.45-6.74-1.34-2.03-.89-3.78-2.11-5.26-3.67-1.48-1.55-2.63-3.35-3.45-5.38-.81-2.03-1.22-4.19-1.22-6.47,0-3.07.71-5.87,2.13-8.4,1.42-2.53,3.39-4.56,5.92-6.09,2.53-1.53,5.42-2.3,8.68-2.3s6.17.78,8.62,2.33c2.44,1.56,4.34,3.59,5.7,6.1,1.36,2.51,2.04,5.22,2.04,8.12,0,.42-.01.82-.03,1.21-.02.39-.05.7-.09.9h-27.13c.17,2.11.76,3.97,1.79,5.61,1.02,1.63,2.35,2.91,3.98,3.84,1.63.93,3.38,1.39,5.26,1.39,2,0,3.89-.5,5.67-1.5,1.78-1,3-2.32,3.67-3.95l4.76,1.32c-.71,1.59-1.77,3.01-3.16,4.26-1.4,1.25-3.05,2.24-4.95,2.95-1.9.71-3.96,1.07-6.17,1.07Zm-11.03-18.8h22.31c-.17-2.11-.77-3.96-1.82-5.57-1.04-1.61-2.38-2.87-4.01-3.78-1.63-.91-3.42-1.36-5.39-1.36s-3.7.45-5.33,1.36c-1.63.91-2.96,2.17-3.98,3.78-1.02,1.61-1.62,3.47-1.79,5.57Z"/><path class="cls-3" d="m89.63,32.2c-1.94-.43-3.91-.61-5.86-.58-1.95.04-3.89.28-5.76.74-1.87.45-3.68,1.12-5.38,1.97l-1.25.68-1.2.75-1.15.82c-.37.29-.73.59-1.09.89.42-.22.83-.42,1.24-.64l1.26-.58,1.29-.5,1.3-.44c1.74-.54,3.53-.89,5.31-1.07,1.79-.17,3.58-.18,5.34,0,.77.08,1.54.19,2.3.34-1.47,1.24-3.06,2.32-4.74,3.21-1.24.66-2.53,1.21-3.84,1.64-1.31.44-2.66.76-4.01.94-5.38.74-11.08-.73-15.06-4.13-1-.85-1.89-1.83-2.68-2.9-.8-1.06-1.48-2.22-2.05-3.45-.57-1.22-1.02-2.51-1.37-3.83-.09-.33-.17-.66-.24-.99-.08-.33-.13-.67-.19-1.01-.06-.34-.1-.68-.14-1.01-.05-.34-.07-.67-.09-1-.09-1.34-.06-2.73.08-4.12.14-1.4.38-2.81.67-4.21.3-1.41.68-2.8,1.11-4.19.19-.63.4-1.26.63-1.88.28.22.55.44.82.68.87.78,1.68,1.66,2.4,2.6,1.44,1.9,2.54,4.1,3.22,6.45.68,2.35.95,4.85.75,7.36-.21,2.5-.88,5.01-2.05,7.34,1.63-2.04,2.81-4.5,3.43-7.12.63-2.62.72-5.4.28-8.11-.44-2.72-1.41-5.38-2.89-7.77-1.47-2.4-3.47-4.52-5.84-6.14l-1.82-1.24-1.04,2.09c-.71,1.42-1.34,2.86-1.91,4.34-.56,1.48-1.05,2.99-1.47,4.53-.42,1.54-.75,3.11-.97,4.72-.22,1.61-.34,3.26-.27,4.95.02.42.04.85.09,1.26.04.41.08.83.15,1.24.06.41.12.82.2,1.23.08.41.16.82.26,1.22.38,1.62.92,3.21,1.62,4.74.7,1.53,1.55,3,2.55,4.37,1.01,1.37,2.19,2.62,3.51,3.73,2.64,2.23,5.81,3.72,9.08,4.5,1.64.4,3.31.6,4.99.64,1.67.04,3.35-.08,4.99-.4,1.64-.31,3.23-.78,4.76-1.38,1.53-.62,2.99-1.37,4.37-2.23,1.38-.86,2.67-1.85,3.87-2.92,1.21-1.07,2.31-2.25,3.31-3.49l1.66-2.07-2.45-.54Z"/><path class="cls-3" d="m83.77,31.62c-1.95.04-3.89.28-5.76.74-1.87.45-3.68,1.12-5.38,1.97l-1.25.68-1.2.75-1.15.82c-.37.29-.73.59-1.09.89.42-.22.83-.42,1.24-.64l1.26-.58,1.29-.5,1.3-.44c1.74-.54,3.53-.89,5.31-1.07,1.79-.17,3.58-.18,5.34,0,.77.08,1.54.19,2.3.34l6.12-1.83-2.45-.54c-1.94-.43-3.91-.61-5.86-.58Z"/><path class="cls-3" d="m70.43,36.25l1.29-.5,1.3-.44c.89-.28,1.8-.5,2.71-.68.75-.34,1.52-.66,2.31-.93,1.82-.63,3.73-1.06,5.67-1.28,1.94-.21,3.92-.22,5.89.02l2.49.31-2.45-.54c-1.94-.43-3.91-.61-5.86-.58-1.95.04-3.89.28-5.76.74-1.87.45-3.68,1.12-5.38,1.97l-1.25.68-1.2.75-1.15.82c-.37.29-.73.59-1.09.89.42-.22.83-.42,1.24-.64l1.26-.58Z"/><path class="cls-3" d="m53.95,7.36l.07.32s0-.03.01-.04c.28.22.55.44.82.68.87.78,1.68,1.66,2.4,2.6,1.44,1.9,2.54,4.1,3.22,6.45.68,2.35.95,4.85.75,7.36-.21,2.5-.88,5.01-2.05,7.34,1.63-2.04,2.81-4.5,3.43-7.12.63-2.62.72-5.4.28-8.11-.44-2.72-1.41-5.38-2.89-7.77-1.47-2.4-3.47-4.52-5.84-6.14l-1.82-1.24h0s1.63,5.68,1.63,5.68Z"/><path class="cls-3" d="m59.34,9.69c1.28,2.51,2.02,5.25,2.23,7.99.14,1.84.04,3.68-.29,5.47,0,.53-.02,1.06-.06,1.6-.21,2.5-.88,5.01-2.05,7.34,1.63-2.04,2.81-4.5,3.43-7.12.63-2.62.72-5.4.28-8.11-.44-2.72-1.41-5.38-2.89-7.77-1.47-2.4-3.47-4.52-5.84-6.14l-1.82-1.24,1.71,1.39c2.23,1.82,4.05,4.09,5.31,6.61Z"/><path class="cls-3" d="m90.09,34.75c-1.19,1.11-2.49,2.12-3.87,3.01-1.39.88-2.87,1.64-4.42,2.25-1.56.62-3.18,1.05-4.83,1.32-1.65.27-3.34.39-5.02.3-3.36-.16-6.75-1.03-9.76-2.72-.79-.44-1.54-.93-2.26-1.46-.56-.37-1.11-.78-1.62-1.21-1-.85-1.89-1.83-2.68-2.9-.12-.17-.24-.34-.36-.51-.19-.25-.37-.49-.55-.74-.97-1.37-1.8-2.83-2.48-4.35-.18-.38-.33-.76-.48-1.15-.16-.38-.3-.78-.43-1.17-.14-.39-.26-.79-.38-1.19-.13-.39-.22-.81-.32-1.22-.39-1.65-.57-3.29-.66-4.91-.09-1.62-.06-3.23.07-4.82.12-1.59.32-3.16.59-4.72.28-1.56.63-3.1,1.06-4.62l.63-2.25-1.04,2.09c-.71,1.42-1.34,2.86-1.91,4.34-.56,1.48-1.05,2.99-1.47,4.53-.42,1.54-.75,3.11-.97,4.72-.22,1.61-.34,3.26-.27,4.95.02.42.04.85.09,1.26.04.41.08.83.15,1.24.06.41.12.82.2,1.23.08.41.16.82.26,1.22.38,1.62.92,3.21,1.62,4.74.7,1.53,1.55,3,2.55,4.37,1.01,1.37,2.19,2.62,3.51,3.73,2.64,2.23,5.81,3.72,9.08,4.5,1.64.4,3.31.6,4.99.64,1.67.04,3.35-.08,4.99-.4,1.64-.31,3.23-.78,4.76-1.38,1.53-.62,2.99-1.37,4.37-2.23,1.38-.86,2.67-1.85,3.87-2.92,1.21-1.07,2.31-2.25,3.31-3.49l1.66-2.07h-.04c-.61.69-1.26,1.37-1.95,2Z"/><path class="cls-2" d="m50.03,13.28c.12-1.59.32-3.16.59-4.72.28-1.56.63-3.1,1.06-4.62-.42,1.12-.76,2.27-1.04,3.44-.28,1.17-.48,2.35-.64,3.54-.29,2.38-.38,4.8-.05,7.18-.09-1.62-.06-3.23.07-4.82Z"/><path class="cls-2" d="m60.83,12.83c-.38-1.1-.88-2.16-1.49-3.14,1.28,2.51,2.02,5.25,2.23,7.99.14,1.84.04,3.68-.29,5.47.31-1.11.49-2.27.55-3.43.03-.58.03-1.17,0-1.75-.03-.58-.09-1.16-.17-1.74-.09-.58-.2-1.15-.33-1.72-.14-.57-.3-1.13-.5-1.67Z"/><path class="cls-2" d="m77,41.58c.83-.14,1.66-.33,2.47-.59.81-.26,1.59-.58,2.33-.98-1.56.62-3.18,1.05-4.83,1.32-1.65.27-3.34.39-5.02.3.83.15,1.68.2,2.53.18.85-.01,1.69-.1,2.53-.23Z"/><path class="cls-2" d="m83.71,32.16c-.98.11-1.95.29-2.91.54-.95.25-1.89.57-2.77.99,1.82-.63,3.73-1.06,5.67-1.28,1.94-.21,3.92-.22,5.89.02-.96-.23-1.94-.34-2.92-.38-.98-.04-1.97,0-2.95.1Z"/><path class="cls-3" d="m32.2,2.45c-.43,1.94-.61,3.91-.58,5.86.04,1.95.28,3.89.74,5.76.45,1.87,1.12,3.68,1.97,5.38l.68,1.25.75,1.2.82,1.15c.29.37.59.73.89,1.09-.22-.42-.42-.83-.64-1.24l-.58-1.26-.5-1.29-.44-1.3c-.54-1.74-.89-3.53-1.07-5.31-.17-1.79-.18-3.58,0-5.34.08-.77.19-1.54.34-2.3,1.24,1.47,2.32,3.06,3.21,4.74.66,1.24,1.21,2.53,1.64,3.84.44,1.31.76,2.66.94,4.01.74,5.38-.73,11.08-4.13,15.06-.85,1-1.83,1.89-2.9,2.68-1.06.8-2.22,1.48-3.45,2.05-1.22.57-2.51,1.02-3.83,1.37-.33.09-.66.17-.99.24-.33.08-.67.13-1.01.19-.34.06-.68.1-1.01.14-.34.05-.67.07-1,.09-1.34.09-2.72.06-4.12-.08-1.4-.14-2.81-.38-4.21-.67-1.41-.3-2.8-.68-4.19-1.11-.63-.19-1.26-.4-1.88-.63.22-.28.44-.55.68-.82.78-.87,1.66-1.68,2.6-2.4,1.9-1.44,4.1-2.54,6.45-3.22,2.35-.68,4.85-.95,7.36-.75,2.5.21,5.01.88,7.34,2.05-2.04-1.63-4.5-2.81-7.12-3.43-2.62-.63-5.4-.72-8.11-.28-2.72.44-5.38,1.41-7.77,2.89-2.4,1.47-4.52,3.47-6.14,5.84l-1.24,1.82,2.09,1.04c1.42.71,2.86,1.34,4.34,1.91,1.48.56,2.99,1.05,4.53,1.47,1.54.42,3.11.75,4.72.97,1.61.22,3.26.34,4.95.27.42-.02.85-.04,1.26-.09.41-.04.83-.08,1.24-.15.41-.06.82-.12,1.23-.2.41-.08.82-.16,1.22-.26,1.62-.38,3.21-.92,4.74-1.62,1.53-.7,3-1.55,4.37-2.55,1.37-1.01,2.62-2.19,3.73-3.51,2.23-2.64,3.72-5.81,4.5-9.08.4-1.64.6-3.31.64-4.99.04-1.67-.08-3.35-.4-4.99-.31-1.64-.78-3.23-1.38-4.76-.62-1.53-1.37-2.99-2.23-4.37-.86-1.38-1.85-2.67-2.92-3.87-1.07-1.2-2.25-2.31-3.49-3.31l-2.07-1.66-.54,2.45Z"/><path class="cls-3" d="m31.62,8.31c.04,1.95.28,3.89.74,5.76.45,1.87,1.12,3.68,1.97,5.38l.68,1.25.75,1.2.82,1.15c.29.37.59.73.89,1.09-.22-.42-.42-.83-.64-1.24l-.58-1.26-.5-1.29-.44-1.3c-.54-1.74-.89-3.53-1.07-5.31-.17-1.79-.18-3.58,0-5.34.08-.77.19-1.54.34-2.3l-1.83-6.12-.54,2.45c-.43,1.94-.61,3.91-.58,5.86Z"/><path class="cls-3" d="m36.25,21.65l-.5-1.29-.44-1.3c-.28-.89-.5-1.8-.68-2.71-.34-.75-.66-1.52-.93-2.31-.63-1.82-1.06-3.73-1.28-5.67-.21-1.94-.22-3.92.02-5.89l.31-2.49-.54,2.45c-.43,1.94-.61,3.91-.58,5.86.04,1.95.28,3.89.74,5.76.45,1.87,1.12,3.68,1.97,5.38l.68,1.25.75,1.2.82,1.15c.29.37.59.73.89,1.09-.22-.42-.42-.83-.64-1.24l-.58-1.26Z"/><path class="cls-3" d="m7.36,38.14l.32-.07s-.03,0-.04-.01c.22-.28.44-.55.68-.82.78-.87,1.66-1.68,2.6-2.4,1.9-1.44,4.1-2.54,6.45-3.22,2.35-.68,4.85-.95,7.36-.75,2.5.21,5.01.88,7.34,2.05-2.04-1.63-4.5-2.81-7.12-3.43-2.62-.63-5.4-.72-8.11-.28-2.72.44-5.38,1.41-7.77,2.89-2.4,1.47-4.52,3.47-6.14,5.84l-1.24,1.82h0s5.67-1.63,5.67-1.63Z"/><path class="cls-3" d="m9.69,32.74c2.51-1.28,5.25-2.02,7.99-2.23,1.84-.14,3.68-.04,5.47.29.53,0,1.06.02,1.6.06,2.5.21,5.01.88,7.34,2.05-2.04-1.63-4.5-2.81-7.12-3.43-2.62-.63-5.4-.72-8.11-.28-2.72.44-5.38,1.41-7.77,2.89-2.4,1.47-4.52,3.47-6.14,5.84l-1.24,1.82,1.39-1.71c1.82-2.23,4.09-4.05,6.61-5.31Z"/><path class="cls-3" d="m34.75,1.99c1.11,1.19,2.12,2.49,3.01,3.87.88,1.39,1.64,2.87,2.25,4.42.62,1.56,1.05,3.18,1.32,4.83.27,1.65.39,3.34.3,5.02-.16,3.36-1.03,6.75-2.72,9.76-.44.79-.93,1.54-1.46,2.26-.37.56-.78,1.11-1.21,1.62-.85,1-1.83,1.89-2.9,2.68-.17.12-.34.24-.51.36-.25.19-.49.37-.74.55-1.37.97-2.83,1.8-4.35,2.48-.38.18-.76.33-1.15.48-.38.16-.78.3-1.17.43-.39.14-.79.26-1.19.38-.39.13-.81.22-1.22.32-1.65.39-3.29.57-4.91.66-1.62.09-3.23.06-4.82-.07-1.59-.12-3.16-.32-4.72-.59-1.56-.28-3.1-.63-4.62-1.06l-2.25-.63,2.09,1.04c1.42.71,2.86,1.34,4.34,1.91,1.48.56,2.99,1.05,4.53,1.47,1.54.42,3.11.75,4.72.97,1.61.22,3.26.34,4.95.27.42-.02.85-.04,1.26-.09.41-.04.83-.08,1.24-.15.41-.06.82-.12,1.23-.2.41-.08.82-.16,1.22-.26,1.62-.38,3.21-.92,4.74-1.62,1.53-.7,3-1.55,4.37-2.55,1.37-1.01,2.62-2.19,3.73-3.51,2.23-2.64,3.72-5.81,4.5-9.08.4-1.64.6-3.31.64-4.99.04-1.67-.08-3.35-.4-4.99-.31-1.64-.78-3.23-1.38-4.76-.62-1.53-1.37-2.99-2.23-4.37-.86-1.38-1.85-2.67-2.92-3.87-1.07-1.2-2.25-2.31-3.49-3.31l-2.07-1.66v.04c.69.61,1.37,1.26,2,1.95Z"/><path class="cls-2" d="m13.28,42.05c-1.59-.12-3.16-.32-4.72-.59-1.56-.28-3.1-.63-4.62-1.06,1.12.42,2.27.76,3.44,1.04,1.17.28,2.35.48,3.54.64,2.38.29,4.8.38,7.18.05-1.62.09-3.23.06-4.82-.07Z"/><path class="cls-2" d="m12.83,31.25c-1.1.38-2.16.88-3.14,1.49,2.51-1.28,5.25-2.02,7.99-2.23,1.84-.14,3.68-.04,5.47.29-1.11-.31-2.27-.49-3.43-.55-.58-.03-1.16-.03-1.75,0-.58.03-1.16.09-1.74.17-.58.09-1.15.2-1.72.33-.57.14-1.13.3-1.67.5Z"/><path class="cls-2" d="m41.58,15.08c-.14-.83-.33-1.66-.59-2.47-.26-.81-.58-1.59-.98-2.33.62,1.56,1.05,3.18,1.32,4.83.27,1.65.39,3.34.3,5.02.15-.83.2-1.68.18-2.53-.01-.85-.1-1.69-.23-2.53Z"/><path class="cls-2" d="m32.16,8.37c.11.98.29,1.95.54,2.91.25.95.57,1.89.99,2.77-.63-1.82-1.06-3.73-1.28-5.67-.21-1.94-.22-3.92.02-5.89-.23.96-.34,1.94-.38,2.92-.04.98,0,1.97.1,2.95Z"/><path class="cls-3" d="m2.45,59.88c1.94.43,3.91.61,5.86.58,1.95-.04,3.89-.28,5.76-.74,1.87-.45,3.68-1.12,5.38-1.97l1.25-.68,1.2-.75,1.15-.82c.37-.29.73-.59,1.09-.89-.42.22-.83.42-1.24.64l-1.26.58-1.29.5-1.3.44c-1.74.54-3.53.89-5.31,1.07-1.79.17-3.58.18-5.34,0-.77-.08-1.54-.19-2.3-.34,1.47-1.24,3.06-2.32,4.74-3.21,1.24-.66,2.53-1.21,3.84-1.64,1.31-.44,2.66-.76,4.01-.94,5.38-.74,11.08.73,15.06,4.13,1,.85,1.89,1.83,2.68,2.9.8,1.06,1.48,2.22,2.05,3.45.57,1.22,1.02,2.51,1.37,3.83.09.33.17.66.24.99.08.33.13.67.19,1.01.06.34.1.68.14,1.01.05.34.07.67.09,1,.09,1.34.06,2.72-.08,4.12-.14,1.4-.38,2.81-.67,4.21-.3,1.41-.68,2.8-1.11,4.19-.19.63-.4,1.26-.63,1.88-.28-.22-.55-.44-.82-.68-.87-.78-1.68-1.66-2.4-2.6-1.44-1.9-2.54-4.1-3.22-6.45-.68-2.35-.95-4.85-.75-7.36.21-2.5.88-5.01,2.05-7.34-1.63,2.04-2.81,4.5-3.43,7.12-.63,2.62-.72,5.4-.28,8.11.44,2.72,1.41,5.38,2.89,7.77,1.47,2.4,3.47,4.52,5.84,6.14l1.82,1.24,1.04-2.09c.71-1.42,1.34-2.86,1.91-4.34.56-1.48,1.05-2.99,1.47-4.53.42-1.54.75-3.11.97-4.72.22-1.61.34-3.26.27-4.95-.02-.42-.04-.85-.09-1.26-.04-.41-.08-.83-.15-1.24-.06-.41-.12-.82-.2-1.23-.08-.41-.16-.82-.26-1.22-.38-1.62-.92-3.21-1.62-4.74-.7-1.53-1.55-3-2.55-4.37-1.01-1.37-2.19-2.62-3.51-3.73-2.64-2.23-5.81-3.72-9.08-4.5-1.64-.4-3.31-.6-4.99-.64-1.67-.04-3.35.08-4.99.4-1.64.31-3.23.78-4.76,1.38-1.53.62-2.99,1.37-4.37,2.23-1.38.86-2.67,1.85-3.87,2.92-1.2,1.07-2.31,2.25-3.31,3.49l-1.66,2.07,2.45.54Z"/><path class="cls-3" d="m8.31,60.46c1.95-.04,3.89-.28,5.76-.74,1.87-.45,3.68-1.12,5.38-1.97l1.25-.68,1.2-.75,1.15-.82c.37-.29.73-.59,1.09-.89-.42.22-.83.42-1.24.64l-1.26.58-1.29.5-1.3.44c-1.74.54-3.53.89-5.31,1.07-1.79.17-3.58.18-5.34,0-.77-.08-1.54-.19-2.3-.34l-6.12,1.83,2.45.54c1.94.43,3.91.61,5.86.58Z"/><path class="cls-3" d="m21.65,55.84l-1.29.5-1.3.44c-.89.28-1.8.5-2.71.68-.75.34-1.52.66-2.31.93-1.82.63-3.73,1.06-5.67,1.28-1.94.21-3.92.22-5.89-.02l-2.49-.31,2.45.54c1.94.43,3.91.61,5.86.58,1.95-.04,3.89-.28,5.76-.74,1.87-.45,3.68-1.12,5.38-1.97l1.25-.68,1.2-.75,1.15-.82c.37-.29.73-.59,1.09-.89-.42.22-.83.42-1.24.64l-1.26.58Z"/><path class="cls-3" d="m38.14,84.72l-.07-.32s0,.03-.01.04c-.28-.22-.55-.44-.82-.68-.87-.78-1.68-1.66-2.4-2.6-1.44-1.9-2.54-4.1-3.22-6.45-.68-2.35-.95-4.85-.75-7.36.21-2.5.88-5.01,2.05-7.34-1.63,2.04-2.81,4.5-3.43,7.12-.63,2.62-.72,5.4-.28,8.11.44,2.72,1.41,5.38,2.89,7.77,1.47,2.4,3.47,4.52,5.84,6.14l1.82,1.24h0s-1.63-5.68-1.63-5.68Z"/><path class="cls-3" d="m32.74,82.39c-1.28-2.51-2.02-5.25-2.23-7.99-.14-1.84-.04-3.68.29-5.47,0-.53.02-1.06.06-1.6.21-2.5.88-5.01,2.05-7.34-1.63,2.04-2.81,4.5-3.43,7.12-.63,2.62-.72,5.4-.28,8.11.44,2.72,1.41,5.38,2.89,7.77,1.47,2.4,3.47,4.52,5.84,6.14l1.82,1.24-1.71-1.39c-2.23-1.82-4.05-4.09-5.31-6.61Z"/><path class="cls-3" d="m1.99,57.34c1.19-1.11,2.49-2.12,3.87-3.01,1.39-.88,2.87-1.64,4.42-2.25,1.56-.62,3.18-1.05,4.83-1.32,1.65-.27,3.34-.39,5.02-.3,3.36.16,6.75,1.03,9.76,2.72.79.44,1.54.93,2.26,1.46.56.37,1.11.78,1.62,1.21,1,.85,1.89,1.83,2.68,2.9.12.17.24.34.36.51.19.25.37.49.55.74.97,1.37,1.8,2.83,2.48,4.35.18.38.33.76.48,1.15.16.38.3.78.43,1.17.14.39.26.79.38,1.19.13.39.22.81.32,1.22.39,1.65.57,3.29.66,4.91.09,1.62.06,3.23-.07,4.82-.12,1.59-.32,3.16-.59,4.72-.28,1.56-.63,3.1-1.06,4.62l-.63,2.25,1.04-2.09c.71-1.42,1.34-2.86,1.91-4.34.56-1.48,1.05-2.99,1.47-4.53.42-1.54.75-3.11.97-4.72.22-1.61.34-3.26.27-4.95-.02-.42-.04-.85-.09-1.26-.04-.41-.08-.83-.15-1.24-.06-.41-.12-.82-.2-1.23-.08-.41-.16-.82-.26-1.22-.38-1.62-.92-3.21-1.62-4.74-.7-1.53-1.55-3-2.55-4.37-1.01-1.37-2.19-2.62-3.51-3.73-2.64-2.23-5.81-3.72-9.08-4.5-1.64-.4-3.31-.6-4.99-.64-1.67-.04-3.35.08-4.99.4-1.64.31-3.23.78-4.76,1.38-1.53.62-2.99,1.37-4.37,2.23-1.38.86-2.67,1.85-3.87,2.92-1.2,1.07-2.31,2.25-3.31,3.49l-1.66,2.07h.04c.61-.69,1.26-1.37,1.95-2Z"/><path class="cls-2" d="m42.05,78.81c-.12,1.59-.32,3.16-.59,4.72-.28,1.56-.63,3.1-1.06,4.62.42-1.12.76-2.27,1.04-3.44.28-1.17.48-2.35.64-3.54.29-2.38.38-4.8.05-7.18.09,1.62.06,3.23-.07,4.82Z"/><path class="cls-2" d="m31.25,79.25c.38,1.1.88,2.16,1.49,3.14-1.28-2.51-2.02-5.25-2.23-7.99-.14-1.84-.04-3.68.29-5.47-.31,1.11-.49,2.27-.55,3.43-.03.58-.03,1.17,0,1.75.03.58.09,1.16.17,1.74.09.58.2,1.15.33,1.72.14.57.3,1.13.5,1.67Z"/><path class="cls-2" d="m15.08,50.5c-.83.14-1.66.33-2.47.59-.81.26-1.59.58-2.33.98,1.56-.62,3.18-1.05,4.83-1.32,1.65-.27,3.34-.39,5.02-.3-.83-.15-1.68-.2-2.53-.18-.85.01-1.69.1-2.53.23Z"/><path class="cls-2" d="m8.37,59.93c.98-.11,1.95-.29,2.91-.54.95-.25,1.89-.57,2.77-.99-1.82.63-3.73,1.06-5.67,1.28-1.94.21-3.92.22-5.89-.02.96.23,1.94.34,2.92.38.99.04,1.97,0,2.95-.1Z"/><path class="cls-3" d="m59.88,89.63c.43-1.94.61-3.91.58-5.86-.04-1.95-.28-3.89-.74-5.76-.45-1.87-1.12-3.68-1.97-5.38l-.68-1.25-.75-1.2-.82-1.15c-.29-.37-.59-.73-.89-1.09.22.42.42.83.64,1.24l.58,1.26.5,1.29.44,1.3c.54,1.74.89,3.53,1.07,5.31.17,1.79.18,3.58,0,5.34-.08.77-.19,1.54-.34,2.3-1.24-1.47-2.32-3.06-3.21-4.74-.66-1.24-1.21-2.53-1.64-3.84-.44-1.31-.76-2.66-.94-4.01-.74-5.38.73-11.08,4.13-15.06.85-1,1.83-1.89,2.9-2.68,1.06-.8,2.22-1.48,3.45-2.05,1.22-.57,2.51-1.02,3.83-1.37.33-.09.66-.17.99-.24.33-.08.67-.13,1.01-.19.34-.06.68-.1,1.01-.14.34-.05.67-.07,1-.09,1.34-.09,2.72-.06,4.12.08,1.4.14,2.81.38,4.21.67,1.41.3,2.8.68,4.19,1.11.63.19,1.26.4,1.88.63-.22.28-.44.55-.68.82-.78.87-1.66,1.68-2.6,2.4-1.9,1.44-4.1,2.54-6.45,3.22-2.35.68-4.85.95-7.36.75-2.5-.21-5.01-.88-7.34-2.05,2.04,1.63,4.5,2.81,7.12,3.43,2.62.63,5.4.72,8.11.28,2.72-.44,5.38-1.41,7.77-2.89,2.4-1.47,4.52-3.47,6.14-5.84l1.24-1.82-2.09-1.04c-1.42-.71-2.86-1.34-4.34-1.91-1.48-.56-2.99-1.05-4.53-1.47-1.54-.42-3.11-.75-4.72-.97-1.61-.22-3.26-.34-4.95-.27-.42.02-.85.04-1.26.09-.41.04-.83.08-1.24.15-.41.06-.82.12-1.23.2-.41.08-.82.16-1.22.26-1.62.38-3.21.92-4.74,1.62-1.53.7-3,1.55-4.37,2.55-1.37,1.01-2.62,2.19-3.73,3.51-2.23,2.64-3.72,5.81-4.5,9.08-.4,1.64-.6,3.31-.64,4.99-.04,1.67.08,3.35.4,4.99.31,1.64.78,3.23,1.38,4.76.62,1.53,1.37,2.99,2.23,4.37.86,1.38,1.85,2.67,2.92,3.87,1.07,1.2,2.25,2.31,3.49,3.31l2.07,1.66.54-2.45Z"/><path class="cls-3" d="m60.46,83.77c-.04-1.95-.28-3.89-.74-5.76-.45-1.87-1.12-3.68-1.97-5.38l-.68-1.25-.75-1.2-.82-1.15c-.29-.37-.59-.73-.89-1.09.22.42.42.83.64,1.24l.58,1.26.5,1.29.44,1.3c.54,1.74.89,3.53,1.07,5.31.17,1.79.18,3.58,0,5.34-.08.77-.19,1.54-.34,2.3l1.83,6.12.54-2.45c.43-1.94.61-3.91.58-5.86Z"/><path class="cls-3" d="m55.84,70.43l.5,1.29.44,1.3c.28.89.5,1.8.68,2.71.34.75.66,1.52.93,2.31.63,1.82,1.06,3.73,1.28,5.67.21,1.94.22,3.92-.02,5.89l-.31,2.49.54-2.45c.43-1.94.61-3.91.58-5.86-.04-1.95-.28-3.89-.74-5.76-.45-1.87-1.12-3.68-1.97-5.38l-.68-1.25-.75-1.2-.82-1.15c-.29-.37-.59-.73-.89-1.09.22.42.42.83.64,1.24l.58,1.26Z"/><path class="cls-3" d="m84.72,53.95l-.32.07s.03,0,.04.01c-.22.28-.44.55-.68.82-.78.87-1.66,1.68-2.6,2.4-1.9,1.44-4.1,2.54-6.45,3.22-2.35.68-4.85.95-7.36.75-2.5-.21-5.01-.88-7.34-2.05,2.04,1.63,4.5,2.81,7.12,3.43,2.62.63,5.4.72,8.11.28,2.72-.44,5.38-1.41,7.77-2.89,2.4-1.47,4.52-3.47,6.14-5.84l1.24-1.82h0s-5.67,1.63-5.67,1.63Z"/><path class="cls-3" d="m82.39,59.34c-2.51,1.28-5.25,2.02-7.99,2.23-1.84.14-3.68.04-5.47-.29-.53,0-1.06-.02-1.6-.06-2.5-.21-5.01-.88-7.34-2.05,2.04,1.63,4.5,2.81,7.12,3.43,2.62.63,5.4.72,8.11.28,2.72-.44,5.38-1.41,7.77-2.89,2.4-1.47,4.52-3.47,6.14-5.84l1.24-1.82-1.39,1.71c-1.82,2.23-4.09,4.05-6.61,5.31Z"/><path class="cls-3" d="m57.34,90.09c-1.11-1.19-2.12-2.49-3.01-3.87-.88-1.39-1.64-2.87-2.25-4.42-.62-1.56-1.05-3.18-1.32-4.83-.27-1.65-.39-3.34-.3-5.02.16-3.36,1.03-6.75,2.72-9.76.44-.79.93-1.54,1.46-2.26.37-.56.78-1.11,1.21-1.62.85-1,1.83-1.89,2.9-2.68.17-.12.34-.24.51-.36.25-.19.49-.37.74-.55,1.37-.97,2.83-1.8,4.35-2.48.38-.18.76-.33,1.15-.48.38-.16.78-.3,1.17-.43.39-.14.79-.26,1.19-.38.39-.13.81-.22,1.22-.32,1.65-.39,3.29-.57,4.91-.66,1.62-.09,3.23-.06,4.82.07,1.59.12,3.16.32,4.72.59,1.56.28,3.1.63,4.62,1.06l2.25.63-2.09-1.04c-1.42-.71-2.86-1.34-4.34-1.91-1.48-.56-2.99-1.05-4.53-1.47-1.54-.42-3.11-.75-4.72-.97-1.61-.22-3.26-.34-4.95-.27-.42.02-.85.04-1.26.09-.41.04-.83.08-1.24.15-.41.06-.82.12-1.23.2-.41.08-.82.16-1.22.26-1.62.38-3.21.92-4.74,1.62-1.53.7-3,1.55-4.37,2.55-1.37,1.01-2.62,2.19-3.73,3.51-2.23,2.64-3.72,5.81-4.5,9.08-.4,1.64-.6,3.31-.64,4.99-.04,1.67.08,3.35.4,4.99.31,1.64.78,3.23,1.38,4.76.62,1.53,1.37,2.99,2.23,4.37.86,1.38,1.85,2.67,2.92,3.87,1.07,1.2,2.25,2.31,3.49,3.31l2.07,1.66v-.04c-.69-.61-1.37-1.26-2-1.95Z"/><path class="cls-2" d="m78.81,50.03c1.59.12,3.16.32,4.72.59,1.56.28,3.1.63,4.62,1.06-1.12-.42-2.27-.76-3.44-1.04-1.17-.28-2.35-.48-3.54-.64-2.38-.29-4.8-.38-7.18-.05,1.62-.09,3.23-.06,4.82.07Z"/><path class="cls-2" d="m79.25,60.83c1.1-.38,2.16-.88,3.14-1.49-2.51,1.28-5.25,2.02-7.99,2.23-1.84.14-3.68.04-5.47-.29,1.11.31,2.27.49,3.43.55.58.03,1.16.03,1.75,0,.58-.03,1.16-.09,1.74-.17.58-.09,1.15-.2,1.72-.33.57-.14,1.13-.3,1.67-.5Z"/><path class="cls-2" d="m50.5,77c.14.83.33,1.66.59,2.47.26.81.58,1.59.98,2.33-.62-1.56-1.05-3.18-1.32-4.83-.27-1.65-.39-3.34-.3-5.02-.15.83-.2,1.68-.18,2.53.01.85.1,1.69.23,2.53Z"/><path class="cls-2" d="m59.93,83.71c-.11-.98-.29-1.95-.54-2.91-.25-.95-.57-1.89-.99-2.77.63,1.82,1.06,3.73,1.28,5.67.21,1.94.22,3.92-.02,5.89.23-.96.34-1.94.38-2.92.04-.99,0-1.97-.1-2.95Z"/><path class="cls-3" d="m70.3,20.63c-3.02,2.91-4.93,6.93-5.28,11.11.53-.62,1.07-1.24,1.62-1.84,1.37-1.52,2.8-2.98,4.26-4.39,1.47-1.41,2.97-2.79,4.54-4.11,1.56-1.32,3.16-2.6,4.89-3.74-1.21,1.69-2.54,3.24-3.91,4.76-1.37,1.52-2.8,2.98-4.26,4.39-1.47,1.42-2.97,2.79-4.54,4.11-.6.51-1.2,1-1.82,1.49,4.09-.24,8.58-2.37,11.57-5.08,3.18-2.9,4.54-7.27,4.92-11.56-4.42.03-8.8,1.82-11.98,4.88Z"/><path class="cls-3" d="m20.63,21.79c2.91,3.02,6.93,4.93,11.11,5.28-.62-.53-1.24-1.07-1.84-1.62-1.52-1.37-2.98-2.8-4.39-4.26-1.41-1.47-2.79-2.97-4.11-4.54-1.32-1.56-2.6-3.16-3.74-4.89,1.69,1.21,3.24,2.54,4.76,3.91,1.52,1.37,2.98,2.8,4.39,4.26,1.42,1.47,2.79,2.97,4.11,4.54.51.6,1,1.2,1.49,1.82-.24-4.09-2.37-8.58-5.08-11.57-2.9-3.18-7.27-4.54-11.56-4.92.03,4.42,1.82,8.8,4.88,11.98Z"/><path class="cls-3" d="m21.79,71.45c3.02-2.91,4.92-6.93,5.28-11.11-.53.62-1.07,1.24-1.62,1.84-1.37,1.52-2.8,2.98-4.26,4.39-1.47,1.41-2.97,2.79-4.54,4.11-1.56,1.32-3.16,2.6-4.89,3.74,1.21-1.69,2.54-3.24,3.91-4.76,1.37-1.52,2.8-2.98,4.26-4.39,1.47-1.42,2.97-2.79,4.54-4.11.6-.51,1.2-1,1.82-1.49-4.09.24-8.58,2.37-11.57,5.08-3.18,2.9-4.54,7.27-4.92,11.56,4.42-.03,8.8-1.82,11.98-4.88Z"/><path class="cls-3" d="m71.45,70.3c-2.91-3.02-6.93-4.93-11.11-5.28.62.53,1.24,1.07,1.84,1.62,1.52,1.37,2.98,2.8,4.39,4.26,1.41,1.47,2.79,2.97,4.11,4.54,1.32,1.56,2.6,3.16,3.74,4.89-1.69-1.21-3.24-2.54-4.76-3.91-1.52-1.37-2.98-2.8-4.39-4.26-1.42-1.47-2.79-2.97-4.11-4.54-.51-.6-1-1.2-1.49-1.82.24,4.09,2.37,8.58,5.08,11.57,2.9,3.18,7.27,4.54,11.56,4.92-.03-4.42-1.82-8.8-4.88-11.98Z"/></g></g></g></svg>