<?xml version="1.0" encoding="utf-8"?>
<!-- Generator: Adobe Illustrator 27.8.1, SVG Export Plug-In . SVG Version: 6.00 Build 0)  -->
<svg version="1.1" id="_Слой_2" xmlns="http://www.w3.org/2000/svg" xmlns:xlink="http://www.w3.org/1999/xlink" x="0px"
	 y="0px" viewBox="0 0 31 34" style="enable-background:new 0 0 31 34;" xml:space="preserve">
<style type="text/css">
	.st0{fill:#FFFFFF;}
</style>
<g id="_Слой_1-2">
	<path class="st0" d="M15.5,14.6c4,0,7.3-3.3,7.3-7.3S19.5,0,15.5,0S8.2,3.3,8.2,7.3S11.4,14.6,15.5,14.6L15.5,14.6z"/>
	<path class="st0" d="M28.2,34c0.4,0,0.8-0.1,1.2-0.3s0.7-0.5,1-0.8c0.3-0.3,0.5-0.7,0.6-1.1c0.1-0.4,0.1-0.8,0-1.2
		c-0.7-3.6-2.6-6.9-5.4-9.3c-2.8-2.4-6.4-3.7-10.1-3.8l0,0c-3.7,0-7.2,1.4-10,3.7c-2.8,2.3-4.7,5.5-5.5,9.1C0,30.8,0,31.2,0.1,31.6
		c0.1,0.4,0.3,0.8,0.6,1.1c0.3,0.3,0.6,0.6,1,0.8c0.4,0.2,0.8,0.3,1.2,0.3L28.2,34L28.2,34z"/>
</g>
</svg>
